<svg xmlns="http://www.w3.org/2000/svg" width="97" height="26"><path fill="#FFF" d="m10.5 25 4-11.2L18.7 25h4.2l6-17.5h-5l-3.4 10.2-3.7-10.2h-4.2L8.7 17.7 5.3 7.5h-5l6 17.5h4.2Zm28.4.4c1.7 0 3.2-.4 4.7-1.2a9.1 9.1 0 0 0 3.3-3.2c.9-1.4 1.3-3 1.3-4.7 0-1.8-.4-3.4-1.3-4.7a9.2 9.2 0 0 0-3.3-3.3c-1.5-.8-3-1.2-4.7-1.2-1.8 0-3.3.4-4.8 1.2a9.1 9.1 0 0 0-3.4 3.3c-.8 1.3-1.2 2.9-1.2 4.7 0 1.7.4 3.3 1.2 4.7a9.1 9.1 0 0 0 3.4 3.2c1.5.8 3 1.2 4.8 1.2Zm0-4.3c-1.3 0-2.4-.5-3.2-1.4a5 5 0 0 1-1.3-3.4 5 5 0 0 1 1.3-3.5 4 4 0 0 1 3.2-1.3 4 4 0 0 1 3.1 1.3 5 5 0 0 1 1.2 3.5 5 5 0 0 1-1.2 3.4 4 4 0 0 1-3.1 1.4ZM55.4 25v-9.4a4 4 0 0 1 1-3c.8-.7 1.7-1.1 2.9-1.1h1.5V7.3h-1c-1 0-2 .2-2.8.6a4 4 0 0 0-2 2.3V7.5h-4.4V25h4.8Zm11.9 0v-5.3l1.9-2.2 4.4 7.5h5.5l-6.3-10.4 6.3-7h-5.9l-6 6.2V.8h-4.7V25h4.8ZM83.6 4.7V1.2h-2v3.5h2Zm0 20.3V8h-2v17h2Zm11 .2a10 10 0 0 0 1.5-.2v-1.7a11.3 11.3 0 0 1-1.2 0c-.8 0-1.4 0-1.8-.3a2 2 0 0 1-.8-1.1 4.6 4.6 0 0 1-.2-1.4V9.8h3.7V8h-3.7V4h-2V6c0 .6 0 1.1-.4 1.5-.4.4-.9.6-1.5.6H87v1.8h3.2v10.7c0 1.5.4 2.7 1.1 3.5.8.8 1.9 1.2 3.3 1.2Z"/></svg>